<svg width="24" height="24" viewBox="0 0 24 24" fill="none" xmlns="http://www.w3.org/2000/svg">
<path fill-rule="evenodd" clip-rule="evenodd" d="M6.5 17.5V6.5H17.5V17.5H6.5ZM5.34171 5.34171C5.5605 5.12292 5.85725 5 6.16667 5H17.8333C18.1428 5 18.4395 5.12292 18.6583 5.34171C18.8771 5.5605 19 5.85725 19 6.16667V17.8333C19 18.1428 18.8771 18.4395 18.6583 18.6583C18.4395 18.8771 18.1428 19 17.8333 19H6.16667C5.85725 19 5.5605 18.8771 5.34171 18.6583C5.12292 18.4395 5 18.1428 5 17.8333V6.16667C5 5.85725 5.12292 5.5605 5.34171 5.34171ZM15.4417 10.3693C15.5147 10.2894 15.5561 10.1858 15.5583 10.0776C15.5583 9.96094 15.5 9.9026 15.3833 9.84427L14.7417 9.2026C14.6618 9.1296 14.5582 9.08814 14.45 9.08594C14.3418 9.08814 14.2382 9.1296 14.1583 9.2026L11.1833 12.1776L9.84167 10.8359C9.76183 10.7629 9.65816 10.7215 9.55 10.7193C9.44184 10.7215 9.33817 10.7629 9.25833 10.8359L8.61667 11.4776C8.54367 11.5574 8.5022 11.6611 8.5 11.7693C8.5022 11.8774 8.54367 11.9811 8.61667 12.0609L10.25 13.6943L10.8917 14.3359C10.9715 14.4089 11.0752 14.4504 11.1833 14.4526C11.2915 14.4504 11.3952 14.4089 11.475 14.3359L12.1167 13.6943L15.4417 10.3693Z" fill="#1B1B1B"/>
</svg>
