<svg width="24" height="24" viewBox="0 0 24 24" fill="none" xmlns="http://www.w3.org/2000/svg">
  <path d="M12 0C6.485 0 2 4.485 2 10C2 13.778 4.326 17.073 8 18.255V21H6C5.44772 21 5 21.4477 5 22C5 22.5523 5.44772 23 6 23H8V24C8 24.5523 8.44772 25 9 25C9.55228 25 10 24.5523 10 24V23H14V24C14 24.5523 14.4477 25 15 25C15.5523 25 16 24.5523 16 24V23H18C18.5523 23 19 22.5523 19 22C19 21.4477 18.5523 21 18 21H16V18.255C19.674 17.073 22 13.778 22 10C22 4.485 17.515 0 12 0ZM12 16C9.243 16 7 13.757 7 11C7 8.243 9.243 6 12 6C14.757 6 17 8.243 17 11C17 13.757 14.757 16 12 16Z" fill="currentColor"/>
  <path d="M19 2H17V4.965C18.3465 6.07462 19.3256 7.60336 19.76 9.324L21.5 8.5L23 10L18 15H13L14.5 13.5L15.622 12.544C15.2236 11.4604 14.5767 10.5042 13.73 9.735L15 10.965V8H13V6H16C16.5523 6 17 5.55228 17 5V2H19V3.035C22.0156 3.77131 24 6.32636 24 9.5C24 12.6746 22.0156 15.2297 19 15.965V17ZM10.8787 2.82843C9.29096 4.41614 9.29096 7 10.8787 8.58772L12 10L14 12H16V10L13.4142 7.41421C11.9986 6.29234 11.9986 3.70733 13.4142 2.29289C13.7182 1.98886 13.136 1.19615 12.8284 1.19615L10.8787 2.82843ZM15.9512 5.46447C15.4397 4.12601 14.7477 3.01428 13.9497 2.21632L15.4636 2.82843L15.9512 5.46447Z" fill="currentColor"/>
</svg>