<svg width="24" height="24" viewBox="0 0 24 24" fill="none" xmlns="http://www.w3.org/2000/svg">
<path fill-rule="evenodd" clip-rule="evenodd" d="M4 12C4 7.584 7.584 4 12 4C16.416 4 20 7.584 20 12C20 16.416 16.416 20 12 20C7.584 20 4 16.416 4 12ZM5.6 12C5.6 15.536 8.464 18.4 12 18.4C15.536 18.4 18.4 15.536 18.4 12C18.4 8.464 15.536 5.6 12 5.6C8.464 5.6 5.6 8.464 5.6 12ZM16.5715 12.0006C16.5715 14.5253 14.5248 16.572 12.0001 16.572C9.47534 16.572 7.42865 14.5253 7.42865 12.0006C7.42865 9.47586 9.47534 7.42917 12.0001 7.42917C14.5248 7.42917 16.5715 9.47586 16.5715 12.0006Z" fill="#1B1B1B"/>
</svg>
