<svg width="24" height="24" viewBox="0 0 24 24" fill="none" xmlns="http://www.w3.org/2000/svg">
  <path fill-rule="evenodd" clip-rule="evenodd" d="M20 3H4C2.9 3 2 3.9 2 5V19C2 20.1 2.9 21 4 21H20C21.1 21 22 20.1 22 19V5C22 3.9 21.1 3 20 3ZM20 19H4V5H20V19ZM12 11H6C5.45 11 5 10.55 5 10C5 9.45 5.45 9 6 9H12C12.55 9 13 9.45 13 10C13 10.55 12.55 11 12 11ZM18 13H6C5.45 13 5 12.55 5 12C5 11.45 5.45 11 6 11H18C18.55 11 19 11.45 19 12C19 12.55 18.55 13 18 13ZM14 15H6C5.45 15 5 14.55 5 14C5 13.45 5.45 13 6 13H14C14.55 13 15 13.45 15 14C15 14.55 14.55 15 14 15Z" fill="black"/>
</svg>