<?xml version="1.0" encoding="UTF-8" standalone="no"?>
<!DOCTYPE svg PUBLIC "-//W3C//DTD SVG 1.1//EN"
 "http://www.w3.org/Graphics/SVG/1.1/DTD/svg11.dtd">
<!-- Generated by graphviz version 8.0.5 (20230430.1635)
 -->
<!-- Title: workspace Pages: 1 -->
<svg width="553pt" height="188pt"
 viewBox="0.00 0.00 553.29 188.00" xmlns="http://www.w3.org/2000/svg" xmlns:xlink="http://www.w3.org/1999/xlink">
<g id="graph0" class="graph" transform="scale(1 1) rotate(0) translate(4 184)">
<title>workspace</title>
<polygon fill="white" stroke="none" points="-4,4 -4,-184 549.29,-184 549.29,4 -4,4"/>
<!-- @atj/cli&#45;app -->
<g id="node1" class="node">
<title>@atj/cli&#45;app</title>
<ellipse fill="none" stroke="black" cx="163.46" cy="-90" rx="56.98" ry="18"/>
<text text-anchor="middle" x="163.46" y="-84.95" font-family="Times,serif" font-size="14.00">@atj/cli&#45;app</text>
</g>
<!-- @atj/interviews -->
<g id="node2" class="node">
<title>@atj/interviews</title>
<ellipse fill="none" stroke="black" cx="286.46" cy="-18" rx="69.78" ry="18"/>
<text text-anchor="middle" x="286.46" y="-12.95" font-family="Times,serif" font-size="14.00">@atj/interviews</text>
</g>
<!-- @atj/cli&#45;app&#45;&gt;@atj/interviews -->
<g id="edge1" class="edge">
<title>@atj/cli&#45;app&#45;&gt;@atj/interviews</title>
<path fill="none" stroke="black" d="M190.15,-73.81C207.36,-64.02 229.99,-51.14 248.99,-40.33"/>
<polygon fill="black" stroke="black" points="250.58,-42.88 257.54,-34.89 247.12,-36.79 250.58,-42.88"/>
</g>
<!-- @atj/dependency&#45;graph -->
<g id="node3" class="node">
<title>@atj/dependency&#45;graph</title>
<ellipse fill="none" stroke="black" cx="99.46" cy="-18" rx="99.46" ry="18"/>
<text text-anchor="middle" x="99.46" y="-12.95" font-family="Times,serif" font-size="14.00">@atj/dependency&#45;graph</text>
</g>
<!-- @atj/cli&#45;app&#45;&gt;@atj/dependency&#45;graph -->
<g id="edge2" class="edge">
<title>@atj/cli&#45;app&#45;&gt;@atj/dependency&#45;graph</title>
<path fill="none" stroke="black" d="M148.29,-72.41C140.52,-63.91 130.89,-53.37 122.24,-43.91"/>
<polygon fill="black" stroke="black" points="125.3,-41.97 115.96,-36.96 120.13,-46.7 125.3,-41.97"/>
</g>
<!-- @atj/frontend -->
<g id="node4" class="node">
<title>@atj/frontend</title>
<ellipse fill="none" stroke="black" cx="379.46" cy="-162" rx="62.61" ry="18"/>
<text text-anchor="middle" x="379.46" y="-156.95" font-family="Times,serif" font-size="14.00">@atj/frontend</text>
</g>
<!-- @atj/frontend&#45;&gt;@atj/interviews -->
<g id="edge5" class="edge">
<title>@atj/frontend&#45;&gt;@atj/interviews</title>
<path fill="none" stroke="black" d="M340.7,-147.54C322.54,-139.12 302.51,-126.33 291.46,-108 280.55,-89.89 279.86,-65.76 281.59,-47.19"/>
<polygon fill="black" stroke="black" points="285.16,-47.8 282.91,-37.45 278.22,-46.95 285.16,-47.8"/>
</g>
<!-- @atj/docassemble -->
<g id="node5" class="node">
<title>@atj/docassemble</title>
<ellipse fill="none" stroke="black" cx="379.46" cy="-90" rx="78.99" ry="18"/>
<text text-anchor="middle" x="379.46" y="-84.95" font-family="Times,serif" font-size="14.00">@atj/docassemble</text>
</g>
<!-- @atj/frontend&#45;&gt;@atj/docassemble -->
<g id="edge3" class="edge">
<title>@atj/frontend&#45;&gt;@atj/docassemble</title>
<path fill="none" stroke="black" d="M379.46,-143.7C379.46,-136.24 379.46,-127.32 379.46,-118.97"/>
<polygon fill="black" stroke="black" points="382.96,-119.1 379.46,-109.1 375.96,-119.1 382.96,-119.1"/>
</g>
<!-- @atj/documents -->
<g id="node6" class="node">
<title>@atj/documents</title>
<ellipse fill="none" stroke="black" cx="473.46" cy="-18" rx="71.82" ry="18"/>
<text text-anchor="middle" x="473.46" y="-12.95" font-family="Times,serif" font-size="14.00">@atj/documents</text>
</g>
<!-- @atj/frontend&#45;&gt;@atj/documents -->
<g id="edge4" class="edge">
<title>@atj/frontend&#45;&gt;@atj/documents</title>
<path fill="none" stroke="black" d="M418.14,-147.49C436.28,-139.05 456.31,-126.27 467.46,-108 478.49,-89.94 479.45,-65.8 477.95,-47.22"/>
<polygon fill="black" stroke="black" points="481.34,-47.03 476.77,-37.47 474.39,-47.8 481.34,-47.03"/>
</g>
<!-- @atj/docassemble&#45;&gt;@atj/interviews -->
<g id="edge7" class="edge">
<title>@atj/docassemble&#45;&gt;@atj/interviews</title>
<path fill="none" stroke="black" d="M357.42,-72.41C345.38,-63.34 330.27,-51.97 317.09,-42.06"/>
<polygon fill="black" stroke="black" points="319.44,-38.69 309.34,-35.47 315.23,-44.28 319.44,-38.69"/>
</g>
<!-- @atj/docassemble&#45;&gt;@atj/documents -->
<g id="edge6" class="edge">
<title>@atj/docassemble&#45;&gt;@atj/documents</title>
<path fill="none" stroke="black" d="M401.74,-72.41C414.03,-63.26 429.48,-51.76 442.88,-41.77"/>
<polygon fill="black" stroke="black" points="444.41,-44.25 450.34,-35.47 440.23,-38.64 444.41,-44.25"/>
</g>
</g>
</svg>
