<?xml version="1.0" encoding="UTF-8" standalone="no"?>
<!DOCTYPE svg PUBLIC "-//W3C//DTD SVG 1.1//EN"
 "http://www.w3.org/Graphics/SVG/1.1/DTD/svg11.dtd">
<!-- Generated by graphviz version 12.1.0 (20240811.2233)
 -->
<!-- Title: workspace Pages: 1 -->
<svg width="1400pt" height="404pt"
 viewBox="0.00 0.00 1400.26 404.00" xmlns="http://www.w3.org/2000/svg" xmlns:xlink="http://www.w3.org/1999/xlink">
<g id="graph0" class="graph" transform="scale(1 1) rotate(0) translate(4 400)">
<title>workspace</title>
<polygon fill="white" stroke="none" points="-4,4 -4,-400 1396.26,-400 1396.26,4 -4,4"/>
<!-- @atj/cli&#45;app -->
<g id="node1" class="node">
<title>@atj/cli&#45;app</title>
<ellipse fill="none" stroke="black" cx="211.46" cy="-306" rx="56.98" ry="18"/>
<text text-anchor="middle" x="211.46" y="-300.95" font-family="Times,serif" font-size="14.00">@atj/cli&#45;app</text>
</g>
<!-- @atj/dependency&#45;graph -->
<g id="node2" class="node">
<title>@atj/dependency&#45;graph</title>
<ellipse fill="none" stroke="black" cx="99.46" cy="-234" rx="99.46" ry="18"/>
<text text-anchor="middle" x="99.46" y="-228.95" font-family="Times,serif" font-size="14.00">@atj/dependency&#45;graph</text>
</g>
<!-- @atj/cli&#45;app&#45;&gt;@atj/dependency&#45;graph -->
<g id="edge1" class="edge">
<title>@atj/cli&#45;app&#45;&gt;@atj/dependency&#45;graph</title>
<path fill="none" stroke="black" d="M186.6,-289.46C171.63,-280.1 152.29,-268.02 135.64,-257.61"/>
<polygon fill="black" stroke="black" points="137.82,-254.85 127.49,-252.52 134.11,-260.78 137.82,-254.85"/>
</g>
<!-- @atj/infra&#45;core -->
<g id="node3" class="node">
<title>@atj/infra&#45;core</title>
<ellipse fill="none" stroke="black" cx="284.46" cy="-234" rx="67.73" ry="18"/>
<text text-anchor="middle" x="284.46" y="-228.95" font-family="Times,serif" font-size="14.00">@atj/infra&#45;core</text>
</g>
<!-- @atj/cli&#45;app&#45;&gt;@atj/infra&#45;core -->
<g id="edge2" class="edge">
<title>@atj/cli&#45;app&#45;&gt;@atj/infra&#45;core</title>
<path fill="none" stroke="black" d="M228.76,-288.41C237.79,-279.76 249,-269 259,-259.42"/>
<polygon fill="black" stroke="black" points="261.14,-262.21 265.94,-252.76 256.3,-257.16 261.14,-262.21"/>
</g>
<!-- @atj/forms -->
<g id="node5" class="node">
<title>@atj/forms</title>
<ellipse fill="none" stroke="black" cx="731.46" cy="-162" rx="53.4" ry="18"/>
<text text-anchor="middle" x="731.46" y="-156.95" font-family="Times,serif" font-size="14.00">@atj/forms</text>
</g>
<!-- @atj/infra&#45;core&#45;&gt;@atj/forms -->
<g id="edge11" class="edge">
<title>@atj/infra&#45;core&#45;&gt;@atj/forms</title>
<path fill="none" stroke="black" d="M335.55,-221.91C345.77,-219.84 356.44,-217.77 366.46,-216 473.16,-197.21 598.26,-180.11 670.83,-170.67"/>
<polygon fill="black" stroke="black" points="671.05,-174.17 680.51,-169.41 670.15,-167.23 671.05,-174.17"/>
</g>
<!-- @atj/common -->
<g id="node13" class="node">
<title>@atj/common</title>
<ellipse fill="none" stroke="black" cx="861.46" cy="-18" rx="64.66" ry="18"/>
<text text-anchor="middle" x="861.46" y="-12.95" font-family="Times,serif" font-size="14.00">@atj/common</text>
</g>
<!-- @atj/infra&#45;core&#45;&gt;@atj/common -->
<g id="edge10" class="edge">
<title>@atj/infra&#45;core&#45;&gt;@atj/common</title>
<path fill="none" stroke="black" d="M319.34,-218.25C389.44,-188.83 552.64,-121.44 692.46,-72 730.49,-58.55 773.92,-44.97 807.23,-34.92"/>
<polygon fill="black" stroke="black" points="808.09,-38.32 816.66,-32.09 806.08,-31.61 808.09,-38.32"/>
</g>
<!-- @atj/form&#45;rest&#45;api -->
<g id="node4" class="node">
<title>@atj/form&#45;rest&#45;api</title>
<ellipse fill="none" stroke="black" cx="793.46" cy="-234" rx="80.52" ry="18"/>
<text text-anchor="middle" x="793.46" y="-228.95" font-family="Times,serif" font-size="14.00">@atj/form&#45;rest&#45;api</text>
</g>
<!-- @atj/form&#45;rest&#45;api&#45;&gt;@atj/forms -->
<g id="edge3" class="edge">
<title>@atj/form&#45;rest&#45;api&#45;&gt;@atj/forms</title>
<path fill="none" stroke="black" d="M778.45,-216.05C770.96,-207.59 761.74,-197.19 753.47,-187.84"/>
<polygon fill="black" stroke="black" points="756.16,-185.61 746.91,-180.44 750.92,-190.25 756.16,-185.61"/>
</g>
<!-- @atj/database -->
<g id="node7" class="node">
<title>@atj/database</title>
<ellipse fill="none" stroke="black" cx="1016.46" cy="-90" rx="63.12" ry="18"/>
<text text-anchor="middle" x="1016.46" y="-84.95" font-family="Times,serif" font-size="14.00">@atj/database</text>
</g>
<!-- @atj/forms&#45;&gt;@atj/database -->
<g id="edge19" class="edge">
<title>@atj/forms&#45;&gt;@atj/database</title>
<path fill="none" stroke="black" d="M773.82,-150.6C822.85,-138.55 903.87,-118.65 958.67,-105.2"/>
<polygon fill="black" stroke="black" points="959.25,-108.66 968.13,-102.87 957.58,-101.86 959.25,-108.66"/>
</g>
<!-- @atj/forms&#45;&gt;@atj/common -->
<g id="edge18" class="edge">
<title>@atj/forms&#45;&gt;@atj/common</title>
<path fill="none" stroke="black" d="M746.63,-144.43C769.21,-119.77 811.84,-73.2 838.33,-44.27"/>
<polygon fill="black" stroke="black" points="840.79,-46.76 844.97,-37.02 835.63,-42.03 840.79,-46.76"/>
</g>
<!-- @atj/server&#45;doj -->
<g id="node6" class="node">
<title>@atj/server&#45;doj</title>
<ellipse fill="none" stroke="black" cx="969.46" cy="-378" rx="68.75" ry="18"/>
<text text-anchor="middle" x="969.46" y="-372.95" font-family="Times,serif" font-size="14.00">@atj/server&#45;doj</text>
</g>
<!-- @atj/server&#45;doj&#45;&gt;@atj/database -->
<g id="edge4" class="edge">
<title>@atj/server&#45;doj&#45;&gt;@atj/database</title>
<path fill="none" stroke="black" d="M964.9,-359.57C960.81,-341.6 955.95,-312.79 959.46,-288 968.22,-226.18 991.73,-156.62 1005.67,-118.93"/>
<polygon fill="black" stroke="black" points="1008.89,-120.3 1009.12,-109.71 1002.33,-117.84 1008.89,-120.3"/>
</g>
<!-- @atj/server -->
<g id="node8" class="node">
<title>@atj/server</title>
<ellipse fill="none" stroke="black" cx="1022.46" cy="-306" rx="53.91" ry="18"/>
<text text-anchor="middle" x="1022.46" y="-300.95" font-family="Times,serif" font-size="14.00">@atj/server</text>
</g>
<!-- @atj/server&#45;doj&#45;&gt;@atj/server -->
<g id="edge5" class="edge">
<title>@atj/server&#45;doj&#45;&gt;@atj/server</title>
<path fill="none" stroke="black" d="M982.29,-360.05C988.48,-351.89 996.03,-341.91 1002.91,-332.82"/>
<polygon fill="black" stroke="black" points="1005.59,-335.08 1008.84,-325 1000.01,-330.86 1005.59,-335.08"/>
</g>
<!-- @atj/database&#45;&gt;@atj/common -->
<g id="edge14" class="edge">
<title>@atj/database&#45;&gt;@atj/common</title>
<path fill="none" stroke="black" d="M983.97,-74.33C960.98,-63.94 929.9,-49.91 904.8,-38.57"/>
<polygon fill="black" stroke="black" points="906.38,-35.45 895.82,-34.52 903.5,-41.82 906.38,-35.45"/>
</g>
<!-- @atj/server&#45;&gt;@atj/forms -->
<g id="edge24" class="edge">
<title>@atj/server&#45;&gt;@atj/forms</title>
<path fill="none" stroke="black" d="M1001.24,-289.17C974.74,-269.94 927.53,-237.42 883.46,-216 850.89,-200.17 812.35,-186.78 782.22,-177.42"/>
<polygon fill="black" stroke="black" points="783.57,-174.17 772.98,-174.6 781.52,-180.87 783.57,-174.17"/>
</g>
<!-- @atj/server&#45;&gt;@atj/database -->
<g id="edge22" class="edge">
<title>@atj/server&#45;&gt;@atj/database</title>
<path fill="none" stroke="black" d="M1021.98,-287.85C1020.95,-251.14 1018.53,-164.66 1017.26,-119.53"/>
<polygon fill="black" stroke="black" points="1020.77,-119.64 1016.99,-109.75 1013.77,-119.84 1020.77,-119.64"/>
</g>
<!-- @atj/design -->
<g id="node11" class="node">
<title>@atj/design</title>
<ellipse fill="none" stroke="black" cx="463.46" cy="-234" rx="55.45" ry="18"/>
<text text-anchor="middle" x="463.46" y="-228.95" font-family="Times,serif" font-size="14.00">@atj/design</text>
</g>
<!-- @atj/server&#45;&gt;@atj/design -->
<g id="edge23" class="edge">
<title>@atj/server&#45;&gt;@atj/design</title>
<path fill="none" stroke="black" d="M969.69,-302.01C878.78,-296.27 687.02,-281.55 527.46,-252 523.38,-251.24 519.17,-250.36 514.96,-249.41"/>
<polygon fill="black" stroke="black" points="515.89,-246.03 505.35,-247.09 514.25,-252.84 515.89,-246.03"/>
</g>
<!-- @atj/server&#45;&gt;@atj/common -->
<g id="edge21" class="edge">
<title>@atj/server&#45;&gt;@atj/common</title>
<path fill="none" stroke="black" d="M1012.87,-287.97C985.91,-240.08 909.3,-103.98 876.58,-45.85"/>
<polygon fill="black" stroke="black" points="879.7,-44.26 871.74,-37.26 873.6,-47.69 879.7,-44.26"/>
</g>
<!-- @atj/auth -->
<g id="node14" class="node">
<title>@atj/auth</title>
<ellipse fill="none" stroke="black" cx="1091.46" cy="-162" rx="47.26" ry="18"/>
<text text-anchor="middle" x="1091.46" y="-156.95" font-family="Times,serif" font-size="14.00">@atj/auth</text>
</g>
<!-- @atj/server&#45;&gt;@atj/auth -->
<g id="edge20" class="edge">
<title>@atj/server&#45;&gt;@atj/auth</title>
<path fill="none" stroke="black" d="M1030.78,-287.87C1042.54,-263.67 1064.15,-219.21 1078.15,-190.39"/>
<polygon fill="black" stroke="black" points="1081.22,-192.07 1082.45,-181.55 1074.93,-189.02 1081.22,-192.07"/>
</g>
<!-- @atj/server&#45;kansas -->
<g id="node9" class="node">
<title>@atj/server&#45;kansas</title>
<ellipse fill="none" stroke="black" cx="1151.46" cy="-378" rx="81.55" ry="18"/>
<text text-anchor="middle" x="1151.46" y="-372.95" font-family="Times,serif" font-size="14.00">@atj/server&#45;kansas</text>
</g>
<!-- @atj/server&#45;kansas&#45;&gt;@atj/database -->
<g id="edge6" class="edge">
<title>@atj/server&#45;kansas&#45;&gt;@atj/database</title>
<path fill="none" stroke="black" d="M1157.09,-359.57C1169.35,-318.02 1193.84,-211.54 1147.46,-144 1132.58,-122.33 1107.21,-109.52 1082.73,-101.94"/>
<polygon fill="black" stroke="black" points="1084,-98.66 1073.42,-99.32 1082.1,-105.4 1084,-98.66"/>
</g>
<!-- @atj/server&#45;kansas&#45;&gt;@atj/server -->
<g id="edge7" class="edge">
<title>@atj/server&#45;kansas&#45;&gt;@atj/server</title>
<path fill="none" stroke="black" d="M1121.87,-360.94C1103.37,-350.9 1079.39,-337.89 1059.62,-327.16"/>
<polygon fill="black" stroke="black" points="1061.51,-324.21 1051.05,-322.51 1058.17,-330.36 1061.51,-324.21"/>
</g>
<!-- @atj/spotlight -->
<g id="node10" class="node">
<title>@atj/spotlight</title>
<ellipse fill="none" stroke="black" cx="421.46" cy="-306" rx="63.63" ry="18"/>
<text text-anchor="middle" x="421.46" y="-300.95" font-family="Times,serif" font-size="14.00">@atj/spotlight</text>
</g>
<!-- @atj/spotlight&#45;&gt;@atj/forms -->
<g id="edge9" class="edge">
<title>@atj/spotlight&#45;&gt;@atj/forms</title>
<path fill="none" stroke="black" d="M409.3,-287.89C397.01,-268.32 382.11,-236.34 399.46,-216 433.09,-176.58 579.74,-166.35 666.48,-163.78"/>
<polygon fill="black" stroke="black" points="666.37,-167.28 676.27,-163.51 666.18,-160.28 666.37,-167.28"/>
</g>
<!-- @atj/spotlight&#45;&gt;@atj/design -->
<g id="edge8" class="edge">
<title>@atj/spotlight&#45;&gt;@atj/design</title>
<path fill="none" stroke="black" d="M431.63,-288.05C436.43,-280.06 442.26,-270.33 447.62,-261.4"/>
<polygon fill="black" stroke="black" points="450.47,-263.46 452.61,-253.09 444.46,-259.86 450.47,-263.46"/>
</g>
<!-- @atj/design&#45;&gt;@atj/forms -->
<g id="edge16" class="edge">
<title>@atj/design&#45;&gt;@atj/forms</title>
<path fill="none" stroke="black" d="M505.45,-221.81C512.79,-219.87 520.35,-217.87 527.46,-216 578.9,-202.49 637.68,-187.24 678.89,-176.57"/>
<polygon fill="black" stroke="black" points="679.76,-179.97 688.56,-174.07 678.01,-173.19 679.76,-179.97"/>
</g>
<!-- @atj/design&#45;&gt;@atj/common -->
<g id="edge15" class="edge">
<title>@atj/design&#45;&gt;@atj/common</title>
<path fill="none" stroke="black" d="M491.13,-218.12C560.7,-180.72 743.02,-82.68 822.96,-39.7"/>
<polygon fill="black" stroke="black" points="824.16,-43.03 831.31,-35.21 820.84,-36.87 824.16,-43.03"/>
</g>
<!-- @atj/infra&#45;cdktf -->
<g id="node12" class="node">
<title>@atj/infra&#45;cdktf</title>
<ellipse fill="none" stroke="black" cx="1321.46" cy="-378" rx="70.8" ry="18"/>
<text text-anchor="middle" x="1321.46" y="-372.95" font-family="Times,serif" font-size="14.00">@atj/infra&#45;cdktf</text>
</g>
<!-- @atj/auth&#45;&gt;@atj/database -->
<g id="edge13" class="edge">
<title>@atj/auth&#45;&gt;@atj/database</title>
<path fill="none" stroke="black" d="M1074.44,-145.12C1064.96,-136.27 1052.96,-125.07 1042.34,-115.16"/>
<polygon fill="black" stroke="black" points="1045,-112.85 1035.3,-108.58 1040.22,-117.97 1045,-112.85"/>
</g>
<!-- @atj/auth&#45;&gt;@atj/common -->
<g id="edge12" class="edge">
<title>@atj/auth&#45;&gt;@atj/common</title>
<path fill="none" stroke="black" d="M1096.49,-143.8C1101.09,-124.13 1104.95,-92.07 1088.46,-72 1068.86,-48.13 991.91,-33.88 932.98,-26.27"/>
<polygon fill="black" stroke="black" points="933.69,-22.83 923.34,-25.06 932.83,-29.77 933.69,-22.83"/>
</g>
<!-- @atj/docassemble -->
<g id="node15" class="node">
<title>@atj/docassemble</title>
<ellipse fill="none" stroke="black" cx="615.46" cy="-234" rx="78.99" ry="18"/>
<text text-anchor="middle" x="615.46" y="-228.95" font-family="Times,serif" font-size="14.00">@atj/docassemble</text>
</g>
<!-- @atj/docassemble&#45;&gt;@atj/forms -->
<g id="edge17" class="edge">
<title>@atj/docassemble&#45;&gt;@atj/forms</title>
<path fill="none" stroke="black" d="M642.37,-216.76C658.48,-207.04 679.14,-194.57 696.51,-184.09"/>
<polygon fill="black" stroke="black" points="698.24,-187.13 705,-178.97 694.62,-181.14 698.24,-187.13"/>
</g>
</g>
</svg>
