<?xml version="1.0" encoding="UTF-8" standalone="no"?>
<!DOCTYPE svg PUBLIC "-//W3C//DTD SVG 1.1//EN"
 "http://www.w3.org/Graphics/SVG/1.1/DTD/svg11.dtd">
<!-- Generated by graphviz version 8.0.5 (20230430.1635)
 -->
<!-- Title: workspace Pages: 1 -->
<svg width="526pt" height="116pt"
 viewBox="0.00 0.00 526.29 116.00" xmlns="http://www.w3.org/2000/svg" xmlns:xlink="http://www.w3.org/1999/xlink">
<g id="graph0" class="graph" transform="scale(1 1) rotate(0) translate(4 112)">
<title>workspace</title>
<polygon fill="white" stroke="none" points="-4,4 -4,-112 522.29,-112 522.29,4 -4,4"/>
<!-- @atj/cli&#45;app -->
<g id="node1" class="node">
<title>@atj/cli&#45;app</title>
<ellipse fill="none" stroke="black" cx="204.46" cy="-90" rx="56.98" ry="18"/>
<text text-anchor="middle" x="204.46" y="-84.95" font-family="Times,serif" font-size="14.00">@atj/cli&#45;app</text>
</g>
<!-- @atj/interviews -->
<g id="node2" class="node">
<title>@atj/interviews</title>
<ellipse fill="none" stroke="black" cx="286.46" cy="-18" rx="69.78" ry="18"/>
<text text-anchor="middle" x="286.46" y="-12.95" font-family="Times,serif" font-size="14.00">@atj/interviews</text>
</g>
<!-- @atj/cli&#45;app&#45;&gt;@atj/interviews -->
<g id="edge1" class="edge">
<title>@atj/cli&#45;app&#45;&gt;@atj/interviews</title>
<path fill="none" stroke="black" d="M223.48,-72.76C233.99,-63.79 247.23,-52.49 258.86,-42.56"/>
<polygon fill="black" stroke="black" points="260.64,-44.79 265.98,-35.63 256.1,-39.46 260.64,-44.79"/>
</g>
<!-- @atj/dependency&#45;graph -->
<g id="node3" class="node">
<title>@atj/dependency&#45;graph</title>
<ellipse fill="none" stroke="black" cx="99.46" cy="-18" rx="99.46" ry="18"/>
<text text-anchor="middle" x="99.46" y="-12.95" font-family="Times,serif" font-size="14.00">@atj/dependency&#45;graph</text>
</g>
<!-- @atj/cli&#45;app&#45;&gt;@atj/dependency&#45;graph -->
<g id="edge2" class="edge">
<title>@atj/cli&#45;app&#45;&gt;@atj/dependency&#45;graph</title>
<path fill="none" stroke="black" d="M180.9,-73.29C166.95,-63.99 149.03,-52.05 133.56,-41.73"/>
<polygon fill="black" stroke="black" points="136.04,-38.51 125.78,-35.88 132.16,-44.34 136.04,-38.51"/>
</g>
<!-- @atj/frontend -->
<g id="node4" class="node">
<title>@atj/frontend</title>
<ellipse fill="none" stroke="black" cx="366.46" cy="-90" rx="62.61" ry="18"/>
<text text-anchor="middle" x="366.46" y="-84.95" font-family="Times,serif" font-size="14.00">@atj/frontend</text>
</g>
<!-- @atj/frontend&#45;&gt;@atj/interviews -->
<g id="edge4" class="edge">
<title>@atj/frontend&#45;&gt;@atj/interviews</title>
<path fill="none" stroke="black" d="M347.5,-72.41C337.41,-63.58 324.83,-52.57 313.71,-42.84"/>
<polygon fill="black" stroke="black" points="316.39,-39.66 306.56,-35.71 311.78,-44.93 316.39,-39.66"/>
</g>
<!-- @atj/documents -->
<g id="node5" class="node">
<title>@atj/documents</title>
<ellipse fill="none" stroke="black" cx="446.46" cy="-18" rx="71.82" ry="18"/>
<text text-anchor="middle" x="446.46" y="-12.95" font-family="Times,serif" font-size="14.00">@atj/documents</text>
</g>
<!-- @atj/frontend&#45;&gt;@atj/documents -->
<g id="edge3" class="edge">
<title>@atj/frontend&#45;&gt;@atj/documents</title>
<path fill="none" stroke="black" d="M385.42,-72.41C395.51,-63.58 408.09,-52.57 419.21,-42.84"/>
<polygon fill="black" stroke="black" points="421.14,-44.93 426.36,-35.71 416.53,-39.66 421.14,-44.93"/>
</g>
</g>
</svg>
