<?xml version="1.0" encoding="UTF-8" standalone="no"?>
<!DOCTYPE svg PUBLIC "-//W3C//DTD SVG 1.1//EN"
 "http://www.w3.org/Graphics/SVG/1.1/DTD/svg11.dtd">
<!-- Generated by graphviz version 8.0.5 (20230430.1635)
 -->
<!-- Title: workspace Pages: 1 -->
<svg width="625pt" height="188pt"
 viewBox="0.00 0.00 624.91 188.00" xmlns="http://www.w3.org/2000/svg" xmlns:xlink="http://www.w3.org/1999/xlink">
<g id="graph0" class="graph" transform="scale(1 1) rotate(0) translate(4 184)">
<title>workspace</title>
<polygon fill="white" stroke="none" points="-4,4 -4,-184 620.91,-184 620.91,4 -4,4"/>
<!-- @atj/cli&#45;app -->
<g id="node1" class="node">
<title>@atj/cli&#45;app</title>
<ellipse fill="none" stroke="black" cx="226.46" cy="-162" rx="56.98" ry="18"/>
<text text-anchor="middle" x="226.46" y="-156.95" font-family="Times,serif" font-size="14.00">@atj/cli&#45;app</text>
</g>
<!-- @atj/interviews -->
<g id="node2" class="node">
<title>@atj/interviews</title>
<ellipse fill="none" stroke="black" cx="318.46" cy="-18" rx="69.78" ry="18"/>
<text text-anchor="middle" x="318.46" y="-12.95" font-family="Times,serif" font-size="14.00">@atj/interviews</text>
</g>
<!-- @atj/cli&#45;app&#45;&gt;@atj/interviews -->
<g id="edge1" class="edge">
<title>@atj/cli&#45;app&#45;&gt;@atj/interviews</title>
<path fill="none" stroke="black" d="M226.57,-143.54C227.46,-124.51 231.25,-93.85 245.46,-72 253.77,-59.22 266.32,-48.49 278.69,-40.1"/>
<polygon fill="black" stroke="black" points="280.05,-42.75 286.59,-34.42 276.28,-36.85 280.05,-42.75"/>
</g>
<!-- @atj/dependency&#45;graph -->
<g id="node3" class="node">
<title>@atj/dependency&#45;graph</title>
<ellipse fill="none" stroke="black" cx="99.46" cy="-90" rx="99.46" ry="18"/>
<text text-anchor="middle" x="99.46" y="-84.95" font-family="Times,serif" font-size="14.00">@atj/dependency&#45;graph</text>
</g>
<!-- @atj/cli&#45;app&#45;&gt;@atj/dependency&#45;graph -->
<g id="edge2" class="edge">
<title>@atj/cli&#45;app&#45;&gt;@atj/dependency&#45;graph</title>
<path fill="none" stroke="black" d="M198.9,-145.81C181.43,-136.18 158.54,-123.56 139.13,-112.86"/>
<polygon fill="black" stroke="black" points="141.08,-109.39 130.63,-107.63 137.7,-115.52 141.08,-109.39"/>
</g>
<!-- @atj/docassemble -->
<g id="node4" class="node">
<title>@atj/docassemble</title>
<ellipse fill="none" stroke="black" cx="333.46" cy="-90" rx="78.99" ry="18"/>
<text text-anchor="middle" x="333.46" y="-84.95" font-family="Times,serif" font-size="14.00">@atj/docassemble</text>
</g>
<!-- @atj/cli&#45;app&#45;&gt;@atj/docassemble -->
<g id="edge3" class="edge">
<title>@atj/cli&#45;app&#45;&gt;@atj/docassemble</title>
<path fill="none" stroke="black" d="M250.47,-145.29C264.9,-135.86 283.48,-123.7 299.4,-113.29"/>
<polygon fill="black" stroke="black" points="300.96,-115.79 307.41,-107.39 297.13,-109.93 300.96,-115.79"/>
</g>
<!-- @atj/docassemble&#45;&gt;@atj/interviews -->
<g id="edge9" class="edge">
<title>@atj/docassemble&#45;&gt;@atj/interviews</title>
<path fill="none" stroke="black" d="M329.75,-71.7C328.14,-64.15 326.2,-55.12 324.39,-46.68"/>
<polygon fill="black" stroke="black" points="327.64,-46.15 322.13,-37.1 320.8,-47.62 327.64,-46.15"/>
</g>
<!-- @atj/documents -->
<g id="node7" class="node">
<title>@atj/documents</title>
<ellipse fill="none" stroke="black" cx="478.46" cy="-18" rx="71.82" ry="18"/>
<text text-anchor="middle" x="478.46" y="-12.95" font-family="Times,serif" font-size="14.00">@atj/documents</text>
</g>
<!-- @atj/docassemble&#45;&gt;@atj/documents -->
<g id="edge8" class="edge">
<title>@atj/docassemble&#45;&gt;@atj/documents</title>
<path fill="none" stroke="black" d="M366,-73.29C386.88,-63.21 414.18,-50.03 436.65,-39.18"/>
<polygon fill="black" stroke="black" points="437.8,-42.04 445.28,-34.54 434.75,-35.73 437.8,-42.04"/>
</g>
<!-- @atj/spotlight -->
<g id="node5" class="node">
<title>@atj/spotlight</title>
<ellipse fill="none" stroke="black" cx="459.46" cy="-162" rx="63.63" ry="18"/>
<text text-anchor="middle" x="459.46" y="-156.95" font-family="Times,serif" font-size="14.00">@atj/spotlight</text>
</g>
<!-- @atj/spotlight&#45;&gt;@atj/interviews -->
<g id="edge7" class="edge">
<title>@atj/spotlight&#45;&gt;@atj/interviews</title>
<path fill="none" stroke="black" d="M455.81,-143.66C450.92,-124.15 440.58,-92.54 421.46,-72 407.47,-56.97 388.26,-45.5 370.22,-37.14"/>
<polygon fill="black" stroke="black" points="371.91,-33.62 361.35,-32.81 369.1,-40.03 371.91,-33.62"/>
</g>
<!-- @atj/spotlight&#45;&gt;@atj/docassemble -->
<g id="edge5" class="edge">
<title>@atj/spotlight&#45;&gt;@atj/docassemble</title>
<path fill="none" stroke="black" d="M431.5,-145.46C413.88,-135.68 390.91,-122.92 371.63,-112.21"/>
<polygon fill="black" stroke="black" points="373.66,-108.77 363.22,-106.98 370.26,-114.89 373.66,-108.77"/>
</g>
<!-- @atj/design -->
<g id="node6" class="node">
<title>@atj/design</title>
<ellipse fill="none" stroke="black" cx="561.46" cy="-90" rx="55.45" ry="18"/>
<text text-anchor="middle" x="561.46" y="-84.95" font-family="Times,serif" font-size="14.00">@atj/design</text>
</g>
<!-- @atj/spotlight&#45;&gt;@atj/design -->
<g id="edge4" class="edge">
<title>@atj/spotlight&#45;&gt;@atj/design</title>
<path fill="none" stroke="black" d="M482.86,-144.94C496.7,-135.45 514.4,-123.29 529.51,-112.93"/>
<polygon fill="black" stroke="black" points="531.26,-115.29 537.52,-106.74 527.3,-109.52 531.26,-115.29"/>
</g>
<!-- @atj/spotlight&#45;&gt;@atj/documents -->
<g id="edge6" class="edge">
<title>@atj/spotlight&#45;&gt;@atj/documents</title>
<path fill="none" stroke="black" d="M461.79,-143.59C465.03,-119.4 470.92,-75.36 474.76,-46.65"/>
<polygon fill="black" stroke="black" points="478.31,-47.49 476.17,-37.11 471.38,-46.56 478.31,-47.49"/>
</g>
</g>
</svg>
