<?xml version="1.0" encoding="UTF-8" standalone="no"?>
<!DOCTYPE svg PUBLIC "-//W3C//DTD SVG 1.1//EN"
 "http://www.w3.org/Graphics/SVG/1.1/DTD/svg11.dtd">
<!-- Generated by graphviz version 8.0.5 (20230430.1635)
 -->
<!-- Title: workspace Pages: 1 -->
<svg width="762pt" height="260pt"
 viewBox="0.00 0.00 761.67 260.00" xmlns="http://www.w3.org/2000/svg" xmlns:xlink="http://www.w3.org/1999/xlink">
<g id="graph0" class="graph" transform="scale(1 1) rotate(0) translate(4 256)">
<title>workspace</title>
<polygon fill="white" stroke="none" points="-4,4 -4,-256 757.67,-256 757.67,4 -4,4"/>
<!-- @atj/cli&#45;app -->
<g id="node1" class="node">
<title>@atj/cli&#45;app</title>
<ellipse fill="none" stroke="black" cx="297.22" cy="-234" rx="56.98" ry="18"/>
<text text-anchor="middle" x="297.22" y="-228.95" font-family="Times,serif" font-size="14.00">@atj/cli&#45;app</text>
</g>
<!-- @atj/interviews -->
<g id="node2" class="node">
<title>@atj/interviews</title>
<ellipse fill="none" stroke="black" cx="353.22" cy="-90" rx="69.78" ry="18"/>
<text text-anchor="middle" x="353.22" y="-84.95" font-family="Times,serif" font-size="14.00">@atj/interviews</text>
</g>
<!-- @atj/cli&#45;app&#45;&gt;@atj/interviews -->
<g id="edge1" class="edge">
<title>@atj/cli&#45;app&#45;&gt;@atj/interviews</title>
<path fill="none" stroke="black" d="M239.96,-233.21C139.71,-231.68 -51.14,-219.16 13.22,-144 45.9,-105.83 182.46,-94.94 272.25,-91.96"/>
<polygon fill="black" stroke="black" points="272.35,-95.43 282.24,-91.62 272.13,-88.43 272.35,-95.43"/>
</g>
<!-- @atj/dependency&#45;graph -->
<g id="node3" class="node">
<title>@atj/dependency&#45;graph</title>
<ellipse fill="none" stroke="black" cx="297.22" cy="-162" rx="99.46" ry="18"/>
<text text-anchor="middle" x="297.22" y="-156.95" font-family="Times,serif" font-size="14.00">@atj/dependency&#45;graph</text>
</g>
<!-- @atj/cli&#45;app&#45;&gt;@atj/dependency&#45;graph -->
<g id="edge2" class="edge">
<title>@atj/cli&#45;app&#45;&gt;@atj/dependency&#45;graph</title>
<path fill="none" stroke="black" d="M297.22,-215.7C297.22,-208.24 297.22,-199.32 297.22,-190.97"/>
<polygon fill="black" stroke="black" points="300.72,-191.1 297.22,-181.1 293.72,-191.1 300.72,-191.1"/>
</g>
<!-- @atj/docassemble -->
<g id="node4" class="node">
<title>@atj/docassemble</title>
<ellipse fill="none" stroke="black" cx="493.22" cy="-162" rx="78.99" ry="18"/>
<text text-anchor="middle" x="493.22" y="-156.95" font-family="Times,serif" font-size="14.00">@atj/docassemble</text>
</g>
<!-- @atj/cli&#45;app&#45;&gt;@atj/docassemble -->
<g id="edge3" class="edge">
<title>@atj/cli&#45;app&#45;&gt;@atj/docassemble</title>
<path fill="none" stroke="black" d="M334.08,-219.83C364.53,-208.96 408.09,-193.4 441.94,-181.31"/>
<polygon fill="black" stroke="black" points="442.87,-184.34 451.11,-177.68 440.52,-177.75 442.87,-184.34"/>
</g>
<!-- @atj/docassemble&#45;&gt;@atj/interviews -->
<g id="edge10" class="edge">
<title>@atj/docassemble&#45;&gt;@atj/interviews</title>
<path fill="none" stroke="black" d="M461.45,-145.12C441.53,-135.16 415.65,-122.22 394.2,-111.49"/>
<polygon fill="black" stroke="black" points="395.89,-107.92 385.38,-106.58 392.76,-114.18 395.89,-107.92"/>
</g>
<!-- @atj/documents -->
<g id="node8" class="node">
<title>@atj/documents</title>
<ellipse fill="none" stroke="black" cx="629.22" cy="-90" rx="71.82" ry="18"/>
<text text-anchor="middle" x="629.22" y="-84.95" font-family="Times,serif" font-size="14.00">@atj/documents</text>
</g>
<!-- @atj/docassemble&#45;&gt;@atj/documents -->
<g id="edge9" class="edge">
<title>@atj/docassemble&#45;&gt;@atj/documents</title>
<path fill="none" stroke="black" d="M524.08,-145.12C543.43,-135.16 568.56,-122.22 589.41,-111.49"/>
<polygon fill="black" stroke="black" points="590.66,-114.27 597.95,-106.58 587.45,-108.04 590.66,-114.27"/>
</g>
<!-- @atj/form&#45;service -->
<g id="node5" class="node">
<title>@atj/form&#45;service</title>
<ellipse fill="none" stroke="black" cx="101.22" cy="-162" rx="78.99" ry="18"/>
<text text-anchor="middle" x="101.22" y="-156.95" font-family="Times,serif" font-size="14.00">@atj/form&#45;service</text>
</g>
<!-- @atj/form&#45;service&#45;&gt;@atj/interviews -->
<g id="edge4" class="edge">
<title>@atj/form&#45;service&#45;&gt;@atj/interviews</title>
<path fill="none" stroke="black" d="M150.1,-147.42C192.02,-135.78 252.44,-118.99 296.48,-106.76"/>
<polygon fill="black" stroke="black" points="297.32,-109.88 306.02,-103.83 295.45,-103.14 297.32,-109.88"/>
</g>
<!-- @atj/spotlight -->
<g id="node6" class="node">
<title>@atj/spotlight</title>
<ellipse fill="none" stroke="black" cx="641.22" cy="-234" rx="63.63" ry="18"/>
<text text-anchor="middle" x="641.22" y="-228.95" font-family="Times,serif" font-size="14.00">@atj/spotlight</text>
</g>
<!-- @atj/spotlight&#45;&gt;@atj/interviews -->
<g id="edge8" class="edge">
<title>@atj/spotlight&#45;&gt;@atj/interviews</title>
<path fill="none" stroke="black" d="M634.29,-215.7C625.21,-195.32 607.31,-161.97 581.22,-144 537.59,-113.96 479.28,-100.77 432.55,-95.06"/>
<polygon fill="black" stroke="black" points="433.18,-91.5 422.85,-93.86 432.4,-98.45 433.18,-91.5"/>
</g>
<!-- @atj/spotlight&#45;&gt;@atj/docassemble -->
<g id="edge6" class="edge">
<title>@atj/spotlight&#45;&gt;@atj/docassemble</title>
<path fill="none" stroke="black" d="M609.47,-217.98C588.06,-207.86 559.57,-194.38 536.15,-183.3"/>
<polygon fill="black" stroke="black" points="537.99,-179.83 527.45,-178.72 535,-186.16 537.99,-179.83"/>
</g>
<!-- @atj/design -->
<g id="node7" class="node">
<title>@atj/design</title>
<ellipse fill="none" stroke="black" cx="683.22" cy="-162" rx="55.45" ry="18"/>
<text text-anchor="middle" x="683.22" y="-156.95" font-family="Times,serif" font-size="14.00">@atj/design</text>
</g>
<!-- @atj/spotlight&#45;&gt;@atj/design -->
<g id="edge5" class="edge">
<title>@atj/spotlight&#45;&gt;@atj/design</title>
<path fill="none" stroke="black" d="M651.38,-216.05C656.23,-207.97 662.14,-198.12 667.55,-189.11"/>
<polygon fill="black" stroke="black" points="671,-191.16 673.14,-180.79 665,-187.56 671,-191.16"/>
</g>
<!-- @atj/spotlight&#45;&gt;@atj/documents -->
<g id="edge7" class="edge">
<title>@atj/spotlight&#45;&gt;@atj/documents</title>
<path fill="none" stroke="black" d="M688.74,-221.6C710.54,-213.74 734.35,-200.83 747.22,-180 755.63,-166.39 755.91,-157.43 747.22,-144 735.22,-125.45 715.01,-113.33 694.68,-105.44"/>
<polygon fill="black" stroke="black" points="696,-101.84 685.41,-101.79 693.66,-108.43 696,-101.84"/>
</g>
<!-- @atj/forms -->
<g id="node9" class="node">
<title>@atj/forms</title>
<ellipse fill="none" stroke="black" cx="629.22" cy="-18" rx="53.4" ry="18"/>
<text text-anchor="middle" x="629.22" y="-12.95" font-family="Times,serif" font-size="14.00">@atj/forms</text>
</g>
<!-- @atj/documents&#45;&gt;@atj/forms -->
<g id="edge11" class="edge">
<title>@atj/documents&#45;&gt;@atj/forms</title>
<path fill="none" stroke="black" d="M629.22,-71.7C629.22,-64.24 629.22,-55.32 629.22,-46.97"/>
<polygon fill="black" stroke="black" points="632.72,-47.1 629.22,-37.1 625.72,-47.1 632.72,-47.1"/>
</g>
</g>
</svg>
