<?xml version="1.0" encoding="UTF-8" standalone="no"?>
<!DOCTYPE svg PUBLIC "-//W3C//DTD SVG 1.1//EN"
 "http://www.w3.org/Graphics/SVG/1.1/DTD/svg11.dtd">
<!-- Generated by graphviz version 8.0.5 (20230430.1635)
 -->
<!-- Title: workspace Pages: 1 -->
<svg width="721pt" height="260pt"
 viewBox="0.00 0.00 721.43 260.00" xmlns="http://www.w3.org/2000/svg" xmlns:xlink="http://www.w3.org/1999/xlink">
<g id="graph0" class="graph" transform="scale(1 1) rotate(0) translate(4 256)">
<title>workspace</title>
<polygon fill="white" stroke="none" points="-4,4 -4,-256 717.43,-256 717.43,4 -4,4"/>
<!-- @atj/cli&#45;app -->
<g id="node1" class="node">
<title>@atj/cli&#45;app</title>
<ellipse fill="none" stroke="black" cx="93.9" cy="-234" rx="56.98" ry="18"/>
<text text-anchor="middle" x="93.9" y="-228.95" font-family="Times,serif" font-size="14.00">@atj/cli&#45;app</text>
</g>
<!-- @atj/interviews -->
<g id="node2" class="node">
<title>@atj/interviews</title>
<ellipse fill="none" stroke="black" cx="93.9" cy="-90" rx="69.78" ry="18"/>
<text text-anchor="middle" x="93.9" y="-84.95" font-family="Times,serif" font-size="14.00">@atj/interviews</text>
</g>
<!-- @atj/cli&#45;app&#45;&gt;@atj/interviews -->
<g id="edge1" class="edge">
<title>@atj/cli&#45;app&#45;&gt;@atj/interviews</title>
<path fill="none" stroke="black" d="M55.61,-220.21C37.1,-211.87 16.61,-198.94 5.9,-180 -1.97,-166.07 -1.97,-157.93 5.9,-144 14.32,-129.1 28.8,-117.92 43.61,-109.77"/>
<polygon fill="black" stroke="black" points="44.99,-112.48 52.33,-104.84 41.82,-106.24 44.99,-112.48"/>
</g>
<!-- @atj/dependency&#45;graph -->
<g id="node3" class="node">
<title>@atj/dependency&#45;graph</title>
<ellipse fill="none" stroke="black" cx="289.9" cy="-162" rx="99.46" ry="18"/>
<text text-anchor="middle" x="289.9" y="-156.95" font-family="Times,serif" font-size="14.00">@atj/dependency&#45;graph</text>
</g>
<!-- @atj/cli&#45;app&#45;&gt;@atj/dependency&#45;graph -->
<g id="edge2" class="edge">
<title>@atj/cli&#45;app&#45;&gt;@atj/dependency&#45;graph</title>
<path fill="none" stroke="black" d="M130.77,-219.83C160.52,-209.21 202.77,-194.12 236.27,-182.16"/>
<polygon fill="black" stroke="black" points="237.12,-185.21 245.36,-178.55 234.76,-178.62 237.12,-185.21"/>
</g>
<!-- @atj/docassemble -->
<g id="node4" class="node">
<title>@atj/docassemble</title>
<ellipse fill="none" stroke="black" cx="93.9" cy="-162" rx="78.99" ry="18"/>
<text text-anchor="middle" x="93.9" y="-156.95" font-family="Times,serif" font-size="14.00">@atj/docassemble</text>
</g>
<!-- @atj/cli&#45;app&#45;&gt;@atj/docassemble -->
<g id="edge3" class="edge">
<title>@atj/cli&#45;app&#45;&gt;@atj/docassemble</title>
<path fill="none" stroke="black" d="M93.9,-215.7C93.9,-208.24 93.9,-199.32 93.9,-190.97"/>
<polygon fill="black" stroke="black" points="97.4,-191.1 93.9,-181.1 90.4,-191.1 97.4,-191.1"/>
</g>
<!-- @atj/docassemble&#45;&gt;@atj/interviews -->
<g id="edge11" class="edge">
<title>@atj/docassemble&#45;&gt;@atj/interviews</title>
<path fill="none" stroke="black" d="M93.9,-143.7C93.9,-136.24 93.9,-127.32 93.9,-118.97"/>
<polygon fill="black" stroke="black" points="97.4,-119.1 93.9,-109.1 90.4,-119.1 97.4,-119.1"/>
</g>
<!-- @atj/documents -->
<g id="node9" class="node">
<title>@atj/documents</title>
<ellipse fill="none" stroke="black" cx="289.9" cy="-90" rx="71.82" ry="18"/>
<text text-anchor="middle" x="289.9" y="-84.95" font-family="Times,serif" font-size="14.00">@atj/documents</text>
</g>
<!-- @atj/docassemble&#45;&gt;@atj/documents -->
<g id="edge10" class="edge">
<title>@atj/docassemble&#45;&gt;@atj/documents</title>
<path fill="none" stroke="black" d="M134.99,-146.33C165.48,-135.44 207.22,-120.53 239.68,-108.94"/>
<polygon fill="black" stroke="black" points="240.64,-111.96 248.88,-105.3 238.28,-105.36 240.64,-111.96"/>
</g>
<!-- @atj/form&#45;rest&#45;api -->
<g id="node5" class="node">
<title>@atj/form&#45;rest&#45;api</title>
<ellipse fill="none" stroke="black" cx="632.9" cy="-162" rx="80.52" ry="18"/>
<text text-anchor="middle" x="632.9" y="-156.95" font-family="Times,serif" font-size="14.00">@atj/form&#45;rest&#45;api</text>
</g>
<!-- @atj/form&#45;service -->
<g id="node6" class="node">
<title>@atj/form&#45;service</title>
<ellipse fill="none" stroke="black" cx="629.9" cy="-90" rx="78.99" ry="18"/>
<text text-anchor="middle" x="629.9" y="-84.95" font-family="Times,serif" font-size="14.00">@atj/form&#45;service</text>
</g>
<!-- @atj/form&#45;rest&#45;api&#45;&gt;@atj/form&#45;service -->
<g id="edge4" class="edge">
<title>@atj/form&#45;rest&#45;api&#45;&gt;@atj/form&#45;service</title>
<path fill="none" stroke="black" d="M632.16,-143.7C631.84,-136.24 631.46,-127.32 631.1,-118.97"/>
<polygon fill="black" stroke="black" points="634.56,-118.95 630.64,-109.1 627.57,-119.25 634.56,-118.95"/>
</g>
<!-- @atj/spotlight -->
<g id="node7" class="node">
<title>@atj/spotlight</title>
<ellipse fill="none" stroke="black" cx="470.9" cy="-162" rx="63.63" ry="18"/>
<text text-anchor="middle" x="470.9" y="-156.95" font-family="Times,serif" font-size="14.00">@atj/spotlight</text>
</g>
<!-- @atj/spotlight&#45;&gt;@atj/interviews -->
<g id="edge9" class="edge">
<title>@atj/spotlight&#45;&gt;@atj/interviews</title>
<path fill="none" stroke="black" d="M423.47,-149.55C414.98,-147.61 406.19,-145.69 397.9,-144 317.67,-127.68 224.9,-111.96 163.14,-101.93"/>
<polygon fill="black" stroke="black" points="163.8,-98.33 153.37,-100.19 162.68,-105.24 163.8,-98.33"/>
</g>
<!-- @atj/spotlight&#45;&gt;@atj/form&#45;service -->
<g id="edge7" class="edge">
<title>@atj/spotlight&#45;&gt;@atj/form&#45;service</title>
<path fill="none" stroke="black" d="M504.24,-146.33C527.63,-136.03 559.18,-122.13 584.82,-110.85"/>
<polygon fill="black" stroke="black" points="585.94,-113.74 593.69,-106.5 583.12,-107.33 585.94,-113.74"/>
</g>
<!-- @atj/design -->
<g id="node8" class="node">
<title>@atj/design</title>
<ellipse fill="none" stroke="black" cx="472.9" cy="-90" rx="55.45" ry="18"/>
<text text-anchor="middle" x="472.9" y="-84.95" font-family="Times,serif" font-size="14.00">@atj/design</text>
</g>
<!-- @atj/spotlight&#45;&gt;@atj/design -->
<g id="edge5" class="edge">
<title>@atj/spotlight&#45;&gt;@atj/design</title>
<path fill="none" stroke="black" d="M471.4,-143.7C471.61,-136.24 471.87,-127.32 472.1,-118.97"/>
<polygon fill="black" stroke="black" points="475.63,-119.2 472.41,-109.1 468.63,-119 475.63,-119.2"/>
</g>
<!-- @atj/spotlight&#45;&gt;@atj/documents -->
<g id="edge6" class="edge">
<title>@atj/spotlight&#45;&gt;@atj/documents</title>
<path fill="none" stroke="black" d="M434.28,-146.83C406.43,-136.07 367.9,-121.16 337.64,-109.46"/>
<polygon fill="black" stroke="black" points="339.31,-105.97 328.72,-105.63 336.79,-112.5 339.31,-105.97"/>
</g>
<!-- @atj/forms -->
<g id="node10" class="node">
<title>@atj/forms</title>
<ellipse fill="none" stroke="black" cx="339.9" cy="-18" rx="53.4" ry="18"/>
<text text-anchor="middle" x="339.9" y="-12.95" font-family="Times,serif" font-size="14.00">@atj/forms</text>
</g>
<!-- @atj/spotlight&#45;&gt;@atj/forms -->
<g id="edge8" class="edge">
<title>@atj/spotlight&#45;&gt;@atj/forms</title>
<path fill="none" stroke="black" d="M449.57,-144.57C437.15,-134.58 421.51,-121.22 408.9,-108 389.95,-88.12 371.01,-63.25 357.79,-44.86"/>
<polygon fill="black" stroke="black" points="360.07,-43.02 351.42,-36.89 354.36,-47.07 360.07,-43.02"/>
</g>
<!-- @atj/documents&#45;&gt;@atj/forms -->
<g id="edge12" class="edge">
<title>@atj/documents&#45;&gt;@atj/forms</title>
<path fill="none" stroke="black" d="M302.01,-72.05C307.9,-63.8 315.12,-53.7 321.66,-44.54"/>
<polygon fill="black" stroke="black" points="324.95,-46.96 327.91,-36.79 319.25,-42.89 324.95,-46.96"/>
</g>
</g>
</svg>
