<?xml version="1.0" encoding="UTF-8" standalone="no"?>
<!DOCTYPE svg PUBLIC "-//W3C//DTD SVG 1.1//EN"
 "http://www.w3.org/Graphics/SVG/1.1/DTD/svg11.dtd">
<!-- Generated by graphviz version 7.1.0 (20230121.1956)
 -->
<!-- Title: workspace Pages: 1 -->
<svg width="321pt" height="116pt"
 viewBox="0.00 0.00 320.69 116.00" xmlns="http://www.w3.org/2000/svg" xmlns:xlink="http://www.w3.org/1999/xlink">
<g id="graph0" class="graph" transform="scale(1 1) rotate(0) translate(4 112)">
<title>workspace</title>
<polygon fill="white" stroke="none" points="-4,4 -4,-112 316.69,-112 316.69,4 -4,4"/>
<!-- @atj/cli&#45;app -->
<g id="node1" class="node">
<title>@atj/cli&#45;app</title>
<ellipse fill="none" stroke="black" cx="204.79" cy="-90" rx="54.69" ry="18"/>
<text text-anchor="middle" x="204.79" y="-86.3" font-family="Times,serif" font-size="14.00">@atj/cli&#45;app</text>
</g>
<!-- @atj/core -->
<g id="node2" class="node">
<title>@atj/core</title>
<ellipse fill="none" stroke="black" cx="59.79" cy="-18" rx="45.49" ry="18"/>
<text text-anchor="middle" x="59.79" y="-14.3" font-family="Times,serif" font-size="14.00">@atj/core</text>
</g>
<!-- @atj/cli&#45;app&#45;&gt;@atj/core -->
<g id="edge1" class="edge">
<title>@atj/cli&#45;app&#45;&gt;@atj/core</title>
<path fill="none" stroke="black" d="M174.75,-74.5C152.49,-63.75 122,-49.03 98.01,-37.45"/>
<polygon fill="black" stroke="black" points="99.72,-34.39 89.2,-33.19 96.68,-40.69 99.72,-34.39"/>
</g>
<!-- @atj/dependency&#45;graph -->
<g id="node3" class="node">
<title>@atj/dependency&#45;graph</title>
<ellipse fill="none" stroke="black" cx="217.79" cy="-18" rx="94.78" ry="18"/>
<text text-anchor="middle" x="217.79" y="-14.3" font-family="Times,serif" font-size="14.00">@atj/dependency&#45;graph</text>
</g>
<!-- @atj/cli&#45;app&#45;&gt;@atj/dependency&#45;graph -->
<g id="edge2" class="edge">
<title>@atj/cli&#45;app&#45;&gt;@atj/dependency&#45;graph</title>
<path fill="none" stroke="black" d="M208.01,-71.7C209.38,-64.32 211.01,-55.52 212.55,-47.25"/>
<polygon fill="black" stroke="black" points="215.96,-48.06 214.34,-37.59 209.07,-46.79 215.96,-48.06"/>
</g>
<!-- @atj/frontend -->
<g id="node4" class="node">
<title>@atj/frontend</title>
<ellipse fill="none" stroke="black" cx="59.79" cy="-90" rx="59.59" ry="18"/>
<text text-anchor="middle" x="59.79" y="-86.3" font-family="Times,serif" font-size="14.00">@atj/frontend</text>
</g>
<!-- @atj/frontend&#45;&gt;@atj/core -->
<g id="edge3" class="edge">
<title>@atj/frontend&#45;&gt;@atj/core</title>
<path fill="none" stroke="black" d="M59.79,-71.7C59.79,-64.41 59.79,-55.73 59.79,-47.54"/>
<polygon fill="black" stroke="black" points="63.29,-47.62 59.79,-37.62 56.29,-47.62 63.29,-47.62"/>
</g>
</g>
</svg>
