<?xml version="1.0" encoding="UTF-8" standalone="no"?>
<!DOCTYPE svg PUBLIC "-//W3C//DTD SVG 1.1//EN"
 "http://www.w3.org/Graphics/SVG/1.1/DTD/svg11.dtd">
<!-- Generated by graphviz version 8.0.5 (20230430.1635)
 -->
<!-- Title: workspace Pages: 1 -->
<svg width="653pt" height="332pt"
 viewBox="0.00 0.00 653.03 332.00" xmlns="http://www.w3.org/2000/svg" xmlns:xlink="http://www.w3.org/1999/xlink">
<g id="graph0" class="graph" transform="scale(1 1) rotate(0) translate(4 328)">
<title>workspace</title>
<polygon fill="white" stroke="none" points="-4,4 -4,-328 649.03,-328 649.03,4 -4,4"/>
<!-- @atj/cli&#45;app -->
<g id="node1" class="node">
<title>@atj/cli&#45;app</title>
<ellipse fill="none" stroke="black" cx="99.46" cy="-306" rx="56.98" ry="18"/>
<text text-anchor="middle" x="99.46" y="-300.95" font-family="Times,serif" font-size="14.00">@atj/cli&#45;app</text>
</g>
<!-- @atj/dependency&#45;graph -->
<g id="node2" class="node">
<title>@atj/dependency&#45;graph</title>
<ellipse fill="none" stroke="black" cx="99.46" cy="-234" rx="99.46" ry="18"/>
<text text-anchor="middle" x="99.46" y="-228.95" font-family="Times,serif" font-size="14.00">@atj/dependency&#45;graph</text>
</g>
<!-- @atj/cli&#45;app&#45;&gt;@atj/dependency&#45;graph -->
<g id="edge1" class="edge">
<title>@atj/cli&#45;app&#45;&gt;@atj/dependency&#45;graph</title>
<path fill="none" stroke="black" d="M99.46,-287.7C99.46,-280.24 99.46,-271.32 99.46,-262.97"/>
<polygon fill="black" stroke="black" points="102.96,-263.1 99.46,-253.1 95.96,-263.1 102.96,-263.1"/>
</g>
<!-- @atj/form&#45;rest&#45;api -->
<g id="node3" class="node">
<title>@atj/form&#45;rest&#45;api</title>
<ellipse fill="none" stroke="black" cx="335.46" cy="-234" rx="80.52" ry="18"/>
<text text-anchor="middle" x="335.46" y="-228.95" font-family="Times,serif" font-size="14.00">@atj/form&#45;rest&#45;api</text>
</g>
<!-- @atj/form&#45;service -->
<g id="node4" class="node">
<title>@atj/form&#45;service</title>
<ellipse fill="none" stroke="black" cx="280.46" cy="-162" rx="78.99" ry="18"/>
<text text-anchor="middle" x="280.46" y="-156.95" font-family="Times,serif" font-size="14.00">@atj/form&#45;service</text>
</g>
<!-- @atj/form&#45;rest&#45;api&#45;&gt;@atj/form&#45;service -->
<g id="edge2" class="edge">
<title>@atj/form&#45;rest&#45;api&#45;&gt;@atj/form&#45;service</title>
<path fill="none" stroke="black" d="M322.15,-216.05C315.59,-207.71 307.56,-197.49 300.3,-188.25"/>
<polygon fill="black" stroke="black" points="302.58,-186.49 293.65,-180.79 297.08,-190.81 302.58,-186.49"/>
</g>
<!-- @atj/documents -->
<g id="node7" class="node">
<title>@atj/documents</title>
<ellipse fill="none" stroke="black" cx="507.46" cy="-90" rx="71.82" ry="18"/>
<text text-anchor="middle" x="507.46" y="-84.95" font-family="Times,serif" font-size="14.00">@atj/documents</text>
</g>
<!-- @atj/form&#45;service&#45;&gt;@atj/documents -->
<g id="edge15" class="edge">
<title>@atj/form&#45;service&#45;&gt;@atj/documents</title>
<path fill="none" stroke="black" d="M326.13,-146.92C362.85,-135.59 414.54,-119.65 453.34,-107.69"/>
<polygon fill="black" stroke="black" points="453.89,-110.87 462.41,-104.58 451.83,-104.19 453.89,-110.87"/>
</g>
<!-- @atj/forms -->
<g id="node8" class="node">
<title>@atj/forms</title>
<ellipse fill="none" stroke="black" cx="527.46" cy="-18" rx="53.4" ry="18"/>
<text text-anchor="middle" x="527.46" y="-12.95" font-family="Times,serif" font-size="14.00">@atj/forms</text>
</g>
<!-- @atj/form&#45;service&#45;&gt;@atj/forms -->
<g id="edge16" class="edge">
<title>@atj/form&#45;service&#45;&gt;@atj/forms</title>
<path fill="none" stroke="black" d="M306.27,-144.57C335.22,-126.32 383.71,-96.21 426.46,-72 446.76,-60.5 469.77,-48.36 488.7,-38.6"/>
<polygon fill="black" stroke="black" points="490.16,-41.27 497.46,-33.59 486.97,-35.04 490.16,-41.27"/>
</g>
<!-- @atj/common -->
<g id="node9" class="node">
<title>@atj/common</title>
<ellipse fill="none" stroke="black" cx="387.46" cy="-18" rx="64.66" ry="18"/>
<text text-anchor="middle" x="387.46" y="-12.95" font-family="Times,serif" font-size="14.00">@atj/common</text>
</g>
<!-- @atj/form&#45;service&#45;&gt;@atj/common -->
<g id="edge14" class="edge">
<title>@atj/form&#45;service&#45;&gt;@atj/common</title>
<path fill="none" stroke="black" d="M287.3,-143.85C295.26,-125.08 309.64,-94.66 327.46,-72 335.99,-61.16 346.92,-50.76 357.11,-42.09"/>
<polygon fill="black" stroke="black" points="358.93,-44.3 364.42,-35.24 354.48,-38.9 358.93,-44.3"/>
</g>
<!-- @atj/spotlight -->
<g id="node5" class="node">
<title>@atj/spotlight</title>
<ellipse fill="none" stroke="black" cx="564.46" cy="-306" rx="63.63" ry="18"/>
<text text-anchor="middle" x="564.46" y="-300.95" font-family="Times,serif" font-size="14.00">@atj/spotlight</text>
</g>
<!-- @atj/spotlight&#45;&gt;@atj/form&#45;service -->
<g id="edge5" class="edge">
<title>@atj/spotlight&#45;&gt;@atj/form&#45;service</title>
<path fill="none" stroke="black" d="M500.9,-303.79C417.39,-300.7 277.54,-289.85 245.46,-252 229.89,-233.63 243.2,-207.51 257.66,-188.32"/>
<polygon fill="black" stroke="black" points="260.98,-190.77 264.5,-180.78 255.52,-186.39 260.98,-190.77"/>
</g>
<!-- @atj/design -->
<g id="node6" class="node">
<title>@atj/design</title>
<ellipse fill="none" stroke="black" cx="489.46" cy="-234" rx="55.45" ry="18"/>
<text text-anchor="middle" x="489.46" y="-228.95" font-family="Times,serif" font-size="14.00">@atj/design</text>
</g>
<!-- @atj/spotlight&#45;&gt;@atj/design -->
<g id="edge3" class="edge">
<title>@atj/spotlight&#45;&gt;@atj/design</title>
<path fill="none" stroke="black" d="M546.69,-288.41C537.25,-279.61 525.49,-268.63 515.09,-258.92"/>
<polygon fill="black" stroke="black" points="517.81,-256.73 508.11,-252.47 513.03,-261.85 517.81,-256.73"/>
</g>
<!-- @atj/spotlight&#45;&gt;@atj/documents -->
<g id="edge4" class="edge">
<title>@atj/spotlight&#45;&gt;@atj/documents</title>
<path fill="none" stroke="black" d="M579.32,-288.36C604.68,-257.85 650.78,-191.71 620.46,-144 609.13,-126.17 590.04,-114.23 570.74,-106.29"/>
<polygon fill="black" stroke="black" points="572.26,-102.74 561.67,-102.48 569.79,-109.29 572.26,-102.74"/>
</g>
<!-- @atj/spotlight&#45;&gt;@atj/forms -->
<g id="edge6" class="edge">
<title>@atj/spotlight&#45;&gt;@atj/forms</title>
<path fill="none" stroke="black" d="M591.67,-289.27C604.95,-280.13 619.89,-267.37 628.46,-252 651.93,-209.9 645.28,-191.72 638.46,-144 633.75,-111 637.93,-98.31 617.46,-72 605.64,-56.81 588.15,-45.1 571.72,-36.6"/>
<polygon fill="black" stroke="black" points="573.74,-33.2 563.22,-31.96 570.67,-39.5 573.74,-33.2"/>
</g>
<!-- @atj/design&#45;&gt;@atj/form&#45;service -->
<g id="edge9" class="edge">
<title>@atj/design&#45;&gt;@atj/form&#45;service</title>
<path fill="none" stroke="black" d="M452.1,-220.49C419.15,-209.45 370.76,-193.24 333.75,-180.85"/>
<polygon fill="black" stroke="black" points="335.23,-177.32 324.64,-177.46 333.01,-183.96 335.23,-177.32"/>
</g>
<!-- @atj/design&#45;&gt;@atj/documents -->
<g id="edge8" class="edge">
<title>@atj/design&#45;&gt;@atj/documents</title>
<path fill="none" stroke="black" d="M470.49,-216.92C460.69,-207.34 449.7,-194.28 444.46,-180 438.95,-164.98 437.71,-158.51 444.46,-144 450.12,-131.85 460.08,-121.49 470.44,-113.24"/>
<polygon fill="black" stroke="black" points="472.17,-115.57 478.14,-106.82 468.02,-109.94 472.17,-115.57"/>
</g>
<!-- @atj/design&#45;&gt;@atj/forms -->
<g id="edge10" class="edge">
<title>@atj/design&#45;&gt;@atj/forms</title>
<path fill="none" stroke="black" d="M540.14,-226.42C568.87,-219.8 602.56,-206.55 620.46,-180 652.59,-132.35 595.05,-73.11 557.02,-41.44"/>
<polygon fill="black" stroke="black" points="559.75,-38.34 549.78,-34.75 555.34,-43.77 559.75,-38.34"/>
</g>
<!-- @atj/design&#45;&gt;@atj/common -->
<g id="edge7" class="edge">
<title>@atj/design&#45;&gt;@atj/common</title>
<path fill="none" stroke="black" d="M469.13,-216.98C458.07,-207.33 444.96,-194.17 436.46,-180 410.91,-137.42 397.69,-80.41 391.69,-46.9"/>
<polygon fill="black" stroke="black" points="394.98,-46.37 389.86,-37.09 388.08,-47.54 394.98,-46.37"/>
</g>
<!-- @atj/documents&#45;&gt;@atj/forms -->
<g id="edge13" class="edge">
<title>@atj/documents&#45;&gt;@atj/forms</title>
<path fill="none" stroke="black" d="M512.41,-71.7C514.56,-64.15 517.14,-55.12 519.55,-46.68"/>
<polygon fill="black" stroke="black" points="523.19,-47.68 522.57,-37.1 516.46,-45.76 523.19,-47.68"/>
</g>
<!-- @atj/documents&#45;&gt;@atj/common -->
<g id="edge12" class="edge">
<title>@atj/documents&#45;&gt;@atj/common</title>
<path fill="none" stroke="black" d="M479.93,-72.94C463.2,-63.18 441.64,-50.6 423.55,-40.05"/>
<polygon fill="black" stroke="black" points="425.85,-36.76 415.45,-34.74 422.32,-42.81 425.85,-36.76"/>
</g>
<!-- @atj/docassemble -->
<g id="node10" class="node">
<title>@atj/docassemble</title>
<ellipse fill="none" stroke="black" cx="532.46" cy="-162" rx="78.99" ry="18"/>
<text text-anchor="middle" x="532.46" y="-156.95" font-family="Times,serif" font-size="14.00">@atj/docassemble</text>
</g>
<!-- @atj/docassemble&#45;&gt;@atj/documents -->
<g id="edge11" class="edge">
<title>@atj/docassemble&#45;&gt;@atj/documents</title>
<path fill="none" stroke="black" d="M526.28,-143.7C523.56,-136.07 520.29,-126.92 517.25,-118.4"/>
<polygon fill="black" stroke="black" points="520.23,-117.34 513.57,-109.1 513.64,-119.7 520.23,-117.34"/>
</g>
</g>
</svg>
