<svg width="800" height="800" viewBox="0 0 800 800" fill="none" xmlns="http://www.w3.org/2000/svg">
<path d="M633.199 218.274L442.781 111.163C416.376 96.2789 383.592 96.2789 357.188 111.163L166.801 218.242C139.349 233.634 122.307 262.8 122.307 294.314V505.678C122.307 537.161 139.349 566.295 166.769 581.719L357.188 688.829C370.39 696.255 385.211 700 400 700C414.789 700 429.61 696.287 442.812 688.829L633.231 581.719C660.651 566.295 677.693 537.161 677.693 505.678V294.314C677.693 262.8 660.619 233.634 633.199 218.274ZM380.546 152.643C386.512 149.279 393.24 147.597 399.968 147.597C406.696 147.597 413.424 149.279 419.391 152.643L603.557 256.262L399.937 372.608L196.316 256.262L380.546 152.643ZM190.127 540.303C177.623 533.257 169.88 520.023 169.88 505.71V295.964L376.166 413.833V644.937L190.127 540.303ZM609.841 540.303L423.802 644.969V413.865L630.089 295.996V505.742C630.089 520.055 622.345 533.257 609.841 540.303Z" fill="black"/>
</svg>
