<svg width="72" height="34" viewBox="0 0 72 34" fill="none" xmlns="http://www.w3.org/2000/svg">
<path d="M0 7.94094L4.46195 0.684566H13.4844V34H5.46195V7.94094H0Z" fill="#000"/>
<path d="M17.5313 16.8859C17.5313 11.6528 18.5228 7.5302 20.5059 4.51812C22.519 1.50604 25.7491 0 30.196 0C34.6429 0 37.8579 1.50604 39.841 4.51812C41.8541 7.5302 42.8607 11.6528 42.8607 16.8859C42.8607 22.1799 41.8541 26.3329 39.841 29.345C37.8579 32.357 34.6429 33.8631 30.196 33.8631C25.7491 33.8631 22.519 32.357 20.5059 29.345C18.5228 26.3329 17.5313 22.1799 17.5313 16.8859ZM35.2889 16.8859C35.2889 13.813 34.9584 11.455 34.2974 9.81208C33.6363 8.1387 32.2692 7.30201 30.196 7.30201C28.1228 7.30201 26.7556 8.1387 26.0946 9.81208C25.4336 11.455 25.103 13.813 25.103 16.8859C25.103 18.9548 25.2232 20.6738 25.4636 22.043C25.704 23.3817 26.1847 24.477 26.9059 25.3289C27.657 26.1503 28.7537 26.5611 30.196 26.5611C31.6382 26.5611 32.7199 26.1503 33.441 25.3289C34.1922 24.477 34.688 23.3817 34.9283 22.043C35.1687 20.6738 35.2889 18.9548 35.2889 16.8859Z" fill="#000"/>
<path d="M63.0466 34L58.057 26.7778L53.8601 34H45.2332L53.8135 20.7204L45 8H53.9534L58.943 15.1756L63.1399 8H71.7668L63.0466 21.0932L72 34H63.0466Z" fill="#9355dc"/>
</svg>
